<?xml version="1.0" standalone="no"?>
<!DOCTYPE svg PUBLIC "-//W3C//DTD SVG 20010904//EN"
 "http://www.w3.org/TR/2001/REC-SVG-20010904/DTD/svg10.dtd">
<svg version="1.0" xmlns="http://www.w3.org/2000/svg"
 width="512.000000pt" height="512.000000pt" viewBox="0 0 512.000000 512.000000"
 preserveAspectRatio="xMidYMid meet">

<g transform="translate(0.000000,512.000000) scale(0.100000,-0.100000)"
fill="#000000" stroke="none">
<path d="M2355 4499 c-773 -81 -1434 -629 -1661 -1378 -62 -203 -77 -317 -77
-561 0 -175 4 -236 21 -330 57 -311 184 -602 373 -851 80 -107 260 -287 366
-367 512 -387 1166 -502 1773 -310 l99 31 58 -30 c498 -261 1108 54 1194 617
23 151 -12 359 -83 493 l-31 58 32 102 c211 677 44 1407 -443 1924 -414 440
-1019 665 -1621 602z m155 -518 l0 -428 -117 4 c-136 5 -490 32 -515 39 -15 5
-14 13 13 87 101 280 261 523 416 634 54 38 164 90 196 92 4 1 7 -192 7 -428z
m167 408 c167 -62 329 -232 450 -473 51 -100 133 -310 125 -318 -8 -7 -336
-34 -519 -42 l-123 -6 0 430 c0 237 2 430 5 430 2 0 30 -10 62 -21z m-566
-115 c-138 -165 -259 -386 -326 -594 -9 -30 -20 -58 -24 -62 -12 -14 -578 89
-619 112 -10 5 10 32 73 98 219 231 483 397 782 493 70 22 139 45 153 49 51
17 47 8 -39 -96z m950 67 c267 -77 507 -207 709 -383 105 -92 223 -219 213
-228 -24 -21 -610 -127 -623 -113 -4 4 -19 44 -34 88 -38 112 -145 330 -207
422 -28 43 -85 118 -127 167 -46 54 -68 86 -56 83 10 -3 67 -19 125 -36z
m-1913 -720 c101 -26 365 -77 474 -92 47 -6 91 -15 97 -18 7 -5 8 -18 1 -42
-47 -161 -95 -486 -106 -716 l-7 -143 -450 0 -449 0 6 78 c30 335 123 615 294
879 26 40 51 73 55 73 5 0 43 -9 85 -19z m2964 -54 c169 -262 267 -553 293
-874 l7 -83 -449 0 -449 0 -12 183 c-14 213 -41 406 -81 584 -16 71 -28 130
-26 131 2 2 81 17 177 33 95 16 238 44 318 63 80 18 152 34 160 35 8 0 36 -31
62 -72z m-2029 -92 c104 -8 225 -15 270 -15 45 0 99 -3 120 -6 l37 -7 0 -418
0 -419 -402 0 -401 0 7 128 c12 240 59 560 107 725 10 37 12 39 42 33 18 -3
117 -13 220 -21z m1231 -82 c50 -214 78 -415 92 -660 l7 -123 -402 0 -401 0 0
419 0 420 53 5 c28 3 124 8 212 12 88 3 210 12 270 19 61 6 117 13 127 14 13
1 22 -21 42 -106z m-1696 -1065 c14 -214 41 -407 81 -585 16 -71 28 -130 26
-132 -3 -2 -80 -16 -173 -31 -92 -16 -242 -45 -331 -65 -90 -20 -164 -35 -166
-33 -26 34 -93 142 -128 208 -116 215 -191 475 -212 738 l-7 82 449 0 449 0
12 -182z m892 -237 l0 -420 -52 -5 c-29 -3 -119 -8 -199 -11 -139 -5 -310 -18
-391 -31 l-36 -5 -30 128 c-47 197 -92 550 -92 726 l0 37 400 0 400 0 0 -419z
m896 282 c-4 -76 -9 -145 -11 -153 -3 -8 -25 -23 -50 -33 -176 -73 -362 -271
-430 -460 l-23 -62 -88 -3 c-49 -2 -113 0 -141 3 l-53 6 0 420 0 419 401 0
402 0 -7 -137z m1000 60 c-12 -127 -35 -262 -63 -365 l-27 -97 -56 53 c-162
153 -344 229 -560 230 -63 1 -134 -2 -157 -7 l-43 -7 0 43 c0 24 3 85 6 135
l7 92 450 0 449 0 -6 -77z m-578 -289 c468 -97 715 -600 506 -1030 -141 -288
-472 -453 -784 -390 -296 60 -514 275 -574 568 -104 504 348 956 852 852z
m-1318 -1005 l0 -430 -22 7 c-163 49 -281 146 -403 330 -61 91 -149 268 -194
391 l-30 83 22 4 c43 10 269 28 424 36 87 4 168 8 181 8 l22 2 0 -431z m267
421 l91 0 -5 -79 c-10 -143 27 -309 100 -443 l31 -56 -53 -61 c-89 -102 -188
-168 -308 -205 l-23 -7 0 432 0 432 38 -7 c20 -3 78 -6 129 -6z m-978 -160
c78 -219 175 -392 321 -564 45 -54 73 -95 63 -92 -10 3 -61 17 -113 32 -255
72 -466 181 -670 345 -109 88 -276 258 -263 269 18 16 562 121 607 117 14 -2
27 -27 55 -107z m1348 -596 c-4 -3 -214 -64 -221 -64 -3 0 24 36 61 80 l68 80
47 -47 c26 -26 47 -48 45 -49z"/>
<path d="M3581 2024 c-59 -30 -106 -91 -117 -152 -7 -37 12 -392 26 -501 6
-42 18 -76 34 -99 l25 -35 -31 -35 c-42 -49 -58 -92 -58 -160 0 -122 102 -222
225 -222 123 0 225 100 225 222 0 68 -16 111 -58 160 l-31 35 25 35 c31 43 39
95 55 380 l13 217 -30 58 c-39 77 -100 116 -188 121 -51 3 -70 -1 -115 -24z
m169 -91 c16 -9 37 -31 46 -49 16 -29 16 -47 5 -225 -18 -299 -20 -309 -52
-341 -38 -38 -90 -38 -128 0 -32 32 -34 42 -52 341 -11 177 -11 196 5 225 33
62 116 85 176 49z m0 -778 c56 -29 78 -117 44 -175 -64 -108 -234 -61 -234 65
0 99 100 157 190 110z"/>
</g>
</svg>
