<?xml version="1.0" encoding="UTF-8"?>
<!DOCTYPE svg PUBLIC "-//W3C//DTD SVG 1.1//EN" "http://www.w3.org/Graphics/SVG/1.1/DTD/svg11.dtd">
<svg xmlns="http://www.w3.org/2000/svg" version="1.1" width="96px" height="96px" style="shape-rendering:geometricPrecision; text-rendering:geometricPrecision; image-rendering:optimizeQuality; fill-rule:evenodd; clip-rule:evenodd" xmlns:xlink="http://www.w3.org/1999/xlink">
<g><path style="opacity:0.961" fill="#000000" d="M 19.5,11.5 C 38.1696,11.3334 56.8363,11.5001 75.5,12C 79.3333,13.1667 81.8333,15.6667 83,19.5C 83.6667,38.1667 83.6667,56.8333 83,75.5C 81.8333,79.3333 79.3333,81.8333 75.5,83C 56.8333,83.6667 38.1667,83.6667 19.5,83C 15.6667,81.8333 13.1667,79.3333 12,75.5C 11.3333,56.8333 11.3333,38.1667 12,19.5C 13.3532,15.6499 15.8532,12.9832 19.5,11.5 Z M 24.5,17.5 C 39.837,17.3334 55.1703,17.5001 70.5,18C 75.3011,19.3065 77.6344,22.4732 77.5,27.5C 57.5,27.5 37.5,27.5 17.5,27.5C 17.5678,22.4525 19.9012,19.1192 24.5,17.5 Z M 17.5,33.5 C 37.5,33.5 57.5,33.5 77.5,33.5C 77.9444,46.9071 77.4444,60.2404 76,73.5C 74.6811,75.4875 72.8477,76.6541 70.5,77C 55.1667,77.6667 39.8333,77.6667 24.5,77C 22.1523,76.6541 20.3189,75.4875 19,73.5C 17.5556,60.2404 17.0556,46.9071 17.5,33.5 Z"/></g>
<g><path style="opacity:0.887" fill="#000000" d="M 27.5,41.5 C 35.4863,40.998 37.4863,44.1647 33.5,51C 25.424,51.8047 23.424,48.638 27.5,41.5 Z"/></g>
<g><path style="opacity:0.887" fill="#000000" d="M 44.5,41.5 C 52.4863,40.998 54.4863,44.1647 50.5,51C 42.424,51.8047 40.424,48.638 44.5,41.5 Z"/></g>
<g><path style="opacity:0.887" fill="#000000" d="M 61.5,41.5 C 69.4863,40.998 71.4863,44.1647 67.5,51C 59.424,51.8047 57.424,48.638 61.5,41.5 Z"/></g>
<g><path style="opacity:0.887" fill="#000000" d="M 27.5,59.5 C 35.4863,58.998 37.4863,62.1647 33.5,69C 25.424,69.8047 23.424,66.638 27.5,59.5 Z"/></g>
<g><path style="opacity:0.887" fill="#000000" d="M 44.5,59.5 C 52.4863,58.998 54.4863,62.1647 50.5,69C 42.424,69.8047 40.424,66.638 44.5,59.5 Z"/></g>
</svg>
