<svg width="38" height="38" viewBox="0 0 38 38" fill="none" xmlns="http://www.w3.org/2000/svg">
<path d="M16.9733 11.135C17.9487 9.62384 19.6521 8.63475 21.5754 8.63475C24.6113 8.63475 27.0703 11.0937 27.0703 14.1297C27.0703 16.0529 26.0812 17.7564 24.5701 18.7317L16.9733 11.135ZM32.5653 26.7269C32.5378 25.2158 31.6998 23.8283 30.3535 23.1277C29.6117 22.743 28.8012 22.3859 27.922 22.0836L32.5653 26.7269ZM34.2 32.2493L8.95071 7L7 8.93697L19.2125 21.1495C16.7261 21.4655 14.5556 22.2347 12.7972 23.1414C11.4234 23.842 10.5855 25.257 10.5855 26.7956V30.6145H28.6776L32.263 34.2L34.2 32.2493Z" fill="#9E9E9E"/>
</svg>
